<?xml version="1.0" encoding="UTF-8" standalone="no"?>
<!-- Created with Inkscape (http://www.inkscape.org/) -->

<svg
   xmlns:dc="http://purl.org/dc/elements/1.1/"
   xmlns:cc="http://creativecommons.org/ns#"
   xmlns:rdf="http://www.w3.org/1999/02/22-rdf-syntax-ns#"
   xmlns:svg="http://www.w3.org/2000/svg"
   xmlns="http://www.w3.org/2000/svg"
   xmlns:sodipodi="http://sodipodi.sourceforge.net/DTD/sodipodi-0.dtd"
   xmlns:inkscape="http://www.inkscape.org/namespaces/inkscape"
   width="235.90311"
   height="137.65202"
   id="svg3065"
   version="1.1"
   inkscape:version="0.48.1 r9760"
   sodipodi:docname="New document 5">
  <defs
     id="defs3067" />
  <sodipodi:namedview
     id="base"
     pagecolor="#ffffff"
     bordercolor="#666666"
     borderopacity="1.0"
     inkscape:pageopacity="0.0"
     inkscape:pageshadow="2"
     inkscape:zoom="0.35"
     inkscape:cx="-12.762736"
     inkscape:cy="151.68315"
     inkscape:document-units="px"
     inkscape:current-layer="layer1"
     showgrid="false"
     fit-margin-top="0"
     fit-margin-left="0"
     fit-margin-right="0"
     fit-margin-bottom="0"
     inkscape:window-width="483"
     inkscape:window-height="435"
     inkscape:window-x="0"
     inkscape:window-y="35"
     inkscape:window-maximized="0" />
  <metadata
     id="metadata3070">
    <rdf:RDF>
      <cc:Work
         rdf:about="">
        <dc:format>image/svg+xml</dc:format>
        <dc:type
           rdf:resource="http://purl.org/dc/dcmitype/StillImage" />
        <dc:title></dc:title>
      </cc:Work>
    </rdf:RDF>
  </metadata>
  <g
     inkscape:label="Layer 1"
     inkscape:groupmode="layer"
     id="layer1"
     transform="translate(-387.76274,-546.39332)">
    <g
       id="g3019"
       transform="translate(130.71429,82.857146)">
      <path
         d="m 454.91991,600.8726 c -8.63109,-3.31432 7.015,-22.45174 3.24836,-23.69112 -5.7027,7.32321 -15.87342,26.05464 -25.5037,13.49315 -4.32862,-6.64397 0.85193,-12.65869 7.3242,-7.69862 10.52031,-5.91445 19.08606,-14.87893 26.07546,-24.65776 4.62247,-6.43705 8.14773,-12.98148 -1.64497,-16.6415 -8.42448,-8.01545 -18.08018,-13.52102 -27.95181,-19.91325 -3.28712,-10.86845 13.07797,-21.34469 15.19225,-33.10765 5.29249,-7.36655 6.72304,-24.56341 16.26311,-25.11968 6.88569,3.11591 5.32132,6.88012 1.36638,11.76325 -3.33432,6.53904 -11.7828,16.51923 -12.29805,20.32392 11.11022,-6.82741 21.65597,-14.55542 32.67314,-21.51065 11.17693,10.5002 -9.03143,17.73945 -17.68497,20.26464 -9.83755,4.04654 -18.28537,10.6779 -25.55537,18.47134 4.11554,10.09311 16.22049,17.43795 23.53867,26.29368 13.64258,6.50175 3.75808,19.52879 -0.007,29.27915 -2.1524,7.10734 -14.72715,24.92187 -0.94086,23.33565 4.02982,7.90482 -9.14514,10.13658 -14.09495,9.11545 z m -28.33252,-88.90137 c -11.52229,-9.70101 10.55155,-27.33562 14.62293,-11.52756 0.48263,7.0977 -7.10097,17.93729 -14.62293,11.52756 z"
         style="fill:#000000"
         id="path2461"
         inkscape:connector-curvature="0" />
      <path
         id="path2463"
         d="m 259.55656,598.94434 c -5.8399,-8.03719 9.21805,-3.83174 6.71654,-12.63757 3.34857,-12.83724 1.52963,-26.62095 2.17013,-39.86397 -0.72822,-9.53825 1.58353,-28.66413 -2.16879,-33.0169 -0.71785,13.79421 0.10913,27.61501 0.2297,41.41926 -11.61218,4.19903 -7.70965,-5.9755 -7.26484,-13.54242 -1.44729,-15.17621 3.84459,-29.99964 5.73883,-44.82013 -8.42373,-2.97681 -12.86073,-20.03262 0.84572,-20.98605 12.75575,-0.43573 7.51301,18.74771 1.28643,19.46227 7.54971,-0.99602 12.29355,4.44386 20.70981,-0.88549 10.1532,-1.56885 18.84955,-18.78356 27.85378,-14.26363 5.848,11.59792 -14.66145,15.02816 -22.25394,18.27196 -5.07144,5.68235 -21.08379,0.57847 -19.93225,9.68492 0.86147,14.51627 -1.55271,29.73523 3.8028,43.54494 12.61342,0.14185 24.74005,-3.83125 35.58722,-10.17014 1.50098,-7.91138 12.85402,-13.10829 9.88775,-0.8893 0.044,12.94597 -18.38596,10.85645 -26.91515,16.65548 -6.7411,0.89036 -13.5677,0.47051 -20.35074,0.64517 -2.8569,13.6357 -1.3276,27.77454 -3.573,41.48927 -3.27534,1.6486 -9.86818,3.71668 -12.37,-0.0977 z"
         style="fill:#000000"
         inkscape:connector-curvature="0" />
      <path
         inkscape:connector-curvature="0"
         d="m 341.03855,599.45336 c -9.45265,-6.88419 10.13264,-7.39767 6.00098,-17.1138 1.9469,-18.30884 -0.93389,-36.75402 -0.24162,-55.14444 0.23321,-4.38733 -0.90254,-16.0938 -1.42816,-4.25207 -1.29802,13.8882 0.19916,28.08738 -2.11297,41.80262 -11.8598,9.19613 -5.84092,-13.76402 -6.30901,-20.69292 3.28509,-13.90962 3.15511,-28.35118 5.9363,-42.33774 2.42277,-14.56219 22.84704,-4.85119 18.63844,6.79115 -0.91078,6.01746 0.58864,19.33957 5.06606,6.95716 7.64963,-9.15817 12.84743,-23.00623 21.53657,-29.64733 14.69936,5.48183 -7.58526,17.37175 -11.42258,24.9848 -7.77683,3.73436 -11.11155,25.84253 -19.66313,18.56834 -1.46832,-1.91899 -2.00659,-20.34729 -2.34515,-13.2897 0.289,11.15474 -3.59058,23.71361 3.93329,33.10234 6.58808,10.79284 18.51749,17.38735 29.03931,23.65734 7.88246,2.78214 12.24876,13.32894 18.46164,2.01102 13.32854,1.22521 -6.68077,28.78588 -13.71642,12.05298 -9.5,-8.6029 -22.201,-12.72828 -31.01492,-21.81013 -2.09111,-4.81994 -12.19813,-13.76994 -8.16743,-1.82567 -0.47454,12.09764 3.28208,25.75576 -0.84411,36.81926 -3.57666,1.89474 -7.8879,1.12245 -11.34709,-0.63321 z m 4.6991,-110.25615 c -8.43048,-8.80779 4.49856,-18.7121 13.20851,-15.10892 2.15407,7.42428 2.26343,19.58811 -8.38393,17.73474 -1.80475,-0.37228 -3.48236,-1.31902 -4.82458,-2.62582 z"
         style="fill:#000000"
         id="path2459" />
    </g>
  </g>
</svg>
